<svg id="Layer_1" data-name="Layer 1" xmlns="http://www.w3.org/2000/svg" width="256.5" height="256.5" viewBox="0 0 256.5 115.4" preserveAspectRatio="xMidYMid meet"><title>Getir logo - Brandlogos.net</title><path d="M381.39,370.09c0-13.29-10.86-22-26.8-22-15.11,0-30.92,10.85-30.92,35,0,18.43,11.18,32,30.47,32C365,415.18,377,409,380,404.77c0,0-2.06-8-7.71-8-3,0-5.14,1.16-7.59,2.12a23.93,23.93,0,0,1-9.38,2c-5.4,0-14.66-2.12-14.66-13.74,0,0,4.37,1.28,14.27,1.28C376.25,388.53,381.39,379.53,381.39,370.09Zm-26.16-7.58c7.33,0,10.86,4,10.86,7.64,0,4.3-3.86,7.06-10.86,7.06-10.22,0-14.08-1.41-14.08-1.48C341.09,369.64,346,362.52,355.23,362.52Z" transform="translate(-255.75 -326.3)" style="fill:#5d3ebc"/><path d="M421.68,401.63c-7.33,0-11.12-6.17-11.83-8.86a42.51,42.51,0,0,1-1.16-10.34l.13-19.91h5.34c4.31,0,7.59-1.28,10-3.79a14.38,14.38,0,0,0,3.54-10.08H408.88l-.13-8.8c0-2.83,0-5.07.06-6.81s.13-3.08.19-4.11.19-2,.26-2.63c-5.72,0-10,1.22-13,3.66s-4.5,6.42-4.5,12.07l-.13,44.06c0,18,8.61,29.8,25.07,29.8,8.1,0,14-4.37,14-11a15.66,15.66,0,0,0-.51-4.3A31.46,31.46,0,0,1,421.68,401.63Z" transform="translate(-255.75 -326.3)" style="fill:#5d3ebc"/><path d="M463.38,402.9c-3.66,0-6-2.63-6-7V364.11c0-2.83,0-5.07.06-6.81s.13-3.08.19-4.11.19-2,.26-2.63c-5.79,0-10.16,1.22-13.18,3.66s-4.5,6.42-4.5,12.07l-.13,32.37c0,11.56,7.46,18,16.84,17.6,5.91-.26,11.06-3,11.06-9.25a25.2,25.2,0,0,0-.45-4.69A14.51,14.51,0,0,1,463.38,402.9Z" transform="translate(-255.75 -326.3)" style="fill:#5d3ebc"/><path d="M504.41,350.56a47.47,47.47,0,0,0-10.73,1.22,23.41,23.41,0,0,0-16.84,13.87c-1.8,4-2.76,9.06-2.76,15.35v18.18c0,5.59.71,10.79,4.11,13.36,3.66,2.83,8,3,13.69,3-.06-.58-.19-2.18-.26-3.28s-.19-2.38-.19-4.11-.06-4-.06-6.81V378c0-5.52.9-12.59,10.61-13.42,5.46-.45,10.28-2.57,10.28-8.48a16,16,0,0,0-1-5.52Z" transform="translate(-255.75 -326.3)" style="fill:#5d3ebc"/><path d="M286.09,348.13c-19.93,0-30.34,13.94-30.34,30.89,0,15.67,9.58,30.38,27,30.38,9,0,14.27-3.85,15.56-4.95v7.83c0,9-3.54,15-12.6,15a23.46,23.46,0,0,1-10.61-2.63c-2.7-1.28-4.69-2.76-7.33-2.76-6.75,0-8.61,8.35-8.61,8.41,5.08,6.55,16.71,11.37,26.48,11.37,19.22,0,29.83-11.17,29.83-33.4v-26C315.4,362,306.4,348.13,286.09,348.13ZM286,394.31c-7.46,0-13.18-4.69-13.18-15,0-11,5.85-16.76,13.18-16.76s12.47,4.37,12.47,15.93C298.5,390.26,292.78,394.31,286,394.31Z" transform="translate(-255.75 -326.3)" style="fill:#5d3ebc"/><path d="M444.61,344.22a9.89,9.89,0,0,0,4.31,1c3.54,0,6.3-1.67,8.36-5a10.07,10.07,0,0,0,1.29-4.88,9.86,9.86,0,0,0-1.16-4.62,7.8,7.8,0,0,0-3.47-3.28,8.21,8.21,0,0,0-4.18-1.16,9.39,9.39,0,0,0-4.76,1.35,9.74,9.74,0,0,0-3.6,3.79,9.54,9.54,0,0,0-1.29,4.88,9.08,9.08,0,0,0,4.5,7.9Z" transform="translate(-255.75 -326.3)" style="fill:#5d3ebc"/></svg>