<?xml version="1.0" encoding="UTF-8"?>
<!DOCTYPE svg PUBLIC "-//W3C//DTD SVG 1.1//EN" "http://www.w3.org/Graphics/SVG/1.1/DTD/svg11.dtd">
<!-- Creator: CorelDRAW 2019 (64-Bit) -->
<svg xmlns="http://www.w3.org/2000/svg" xml:space="preserve" width="210mm" height="150mm" version="1.1" style="shape-rendering:geometricPrecision; text-rendering:geometricPrecision; image-rendering:optimizeQuality; fill-rule:evenodd; clip-rule:evenodd"
viewBox="0 0 21000 29700"
 xmlns:xlink="http://www.w3.org/1999/xlink"
 xmlns:xodm="http://www.corel.com/coreldraw/odm/2003">
 <defs>
  <style type="text/css">
   <![CDATA[
    .fil0 {fill:#EC691F}
    .fil1 {fill:#231F20;fill-rule:nonzero}
   ]]>
  </style>
 </defs>
 <g id="Layer_x0020_1">
  <metadata id="CorelCorpID_0Corel-Layer"/>
  <g id="_4777174512">
   <g>
    <path class="fil0" d="M8995.26 14359.19c-58.91,-39.5 -134.23,-138.35 -325.94,-249.38 -121.93,-70.62 -253.71,-126.27 -409.81,-165.4 -630.97,-158.18 -1255.63,83.98 -1631.7,586.92 -183.69,245.64 -283.49,528.76 -302.31,815.88l0 201.27c24.38,370.9 182.72,735.75 469.36,1022.71 120.66,120.76 281.94,238.75 451.57,308.3 155.24,63.67 276.59,104.29 449.37,125.84 209.07,26.03 331.33,11.01 529.98,-28.71 169.46,-33.84 415,-141.56 549.5,-242.81l219.98 -181.6c0,208.87 -2.46,291.25 -74.47,490.06 -141.72,391.42 -543.51,736.71 -967.38,736.71 -284.08,0 -470.33,-27.7 -716.34,-151.93 -132.95,-67.15 -162.03,-82.7 -276.01,-168.98 -101.67,-77.04 -231.15,-155.3 -363.51,-14.92 -0.59,0.64 -12.99,14.76 -15.13,17.43 -79.55,99.43 -62.33,244.78 22.35,321.28l134.66 104.19c257.29,194.32 721.79,370.63 1083.76,370.63l13.95 0c291.24,-0.86 477.27,-27.75 731.31,-155.56 106.81,-53.78 253.28,-142.63 337.48,-226.99 61,-61.05 123.65,-110.55 187.11,-192.77 28.92,-37.42 56.39,-68.96 84.73,-110.66 154.28,-227.68 295.03,-568.26 295.03,-855.65l0 -2627.26c0,-112.37 -104.72,-217.15 -217.04,-217.15 -294.34,0 -260.5,259.54 -260.5,488.55zm-1063.77 89.01c584.2,0 1057.89,451.24 1057.89,1007.85 0,556.56 -473.69,1007.8 -1057.89,1007.8 -584.24,0 -1057.94,-451.24 -1057.94,-1007.8 0,-556.61 473.7,-1007.85 1057.94,-1007.85z"/>
    <path class="fil0" d="M11408.74 13917.84c323.48,0 624.29,96.82 875.27,262.86 210.15,81.04 745.16,283.91 883.99,302.73 173.9,23.58 374.26,61.91 368.38,235.75 0,0 14.7,206.3 -226.93,191.54l-238.69 -35.39c0,0 -126.91,-8.71 -177.11,66.24 19.62,51.59 36.68,104.4 50.9,158.4 29.88,13.68 72.27,22.93 132.36,22.93l804.49 61.9c0,0 436.11,38.33 503.9,23.58 0,0 291.72,11.81 274.03,312.36 0,0 -8.82,256.33 -294.66,250.45 0,0 -863.41,55.97 -1004.86,94.3 0,0 -226.77,35.34 -226.77,135.57 0,0 -44.16,141.5 200.41,129.69l235.7 -14.76c0,0 282.9,-44.15 253.45,182.73 0,0 23.68,185.66 -262.16,209.23 0,0 -794.18,156.1 -1309.03,344.75l0.05 -0.16c-244.31,153.21 -533.09,241.9 -842.72,241.9 -877.2,0 -1588.3,-711.1 -1588.3,-1588.3 0,-877.19 711.1,-1588.3 1588.3,-1588.3zm0 477.28c613.6,0 1111.03,497.43 1111.03,1111.02 0,613.6 -497.43,1111.03 -1111.03,1111.03 -613.59,0 -1111.02,-497.43 -1111.02,-1111.03 0,-613.59 497.43,-1111.02 1111.02,-1111.02z"/>
    <path class="fil0" d="M11408.74 14818.08c379.98,0 688.06,308.08 688.06,688.06 0,379.98 -308.08,688.06 -688.06,688.06 -379.98,0 -688.06,-308.08 -688.06,-688.06 0,-379.98 308.08,-688.06 688.06,-688.06z"/>
    <path class="fil0" d="M13907.65 14588.26c-97.24,0 -176.04,78.8 -176.04,176.04 0,97.24 78.8,176.04 176.04,176.04 97.24,0 176.04,-78.8 176.04,-176.04 0,-97.24 -78.8,-176.04 -176.04,-176.04z"/>
    <path class="fil0" d="M14166.39 16035.91c-97.24,0 -176.04,78.8 -176.04,176.04 0,97.24 78.8,176.04 176.04,176.04 97.24,0 176.04,-78.8 176.04,-176.04 0,-97.24 -78.8,-176.04 -176.04,-176.04z"/>
   </g>
   <path class="fil1" d="M9364.82 12437.29l-896.61 0c41.13,168.3 177.63,295.45 355.28,295.45 100.04,0 198.21,-43.01 263.66,-116.86l216.91 4.66c-95.37,181.38 -277.69,297.32 -488.98,297.32 -308.54,0 -550.7,-267.41 -550.7,-570.31 0,-312.28 238.42,-568.45 555.37,-568.45 306.67,0 551.62,252.44 551.62,557.23 -0.94,32.72 -2.8,68.26 -6.55,100.96l0 0zm-547.88 -473.08c-175.77,0 -338.45,138.38 -349.66,316.96l699.34 -0.01c-11.23,-177.65 -172.97,-316.95 -349.68,-316.95zm1446.38 926.54l0 -588.09c0,-183.25 -55.16,-338.45 -270.2,-338.45 -199.13,0 -285.15,154.28 -285.15,336.59l0 589.96 -202.88 0 0 -1082.69 189.79 0 0 115.01 3.73 0c78.54,-103.79 191.67,-144.93 316.96,-144.93 154.26,0 299.18,60.77 383.32,193.55 52.36,82.26 68.25,181.36 68.25,277.67l0 641.37 -203.82 0.01zm1283.67 0l0 -154.26 -3.73 0c-89.76,125.27 -232.81,181.37 -383.33,181.37 -324.43,0 -562.86,-242.15 -562.86,-564.7 0,-324.44 234.68,-575 562.86,-575 136.51,0 281.41,52.36 367.45,161.74l3.72 0 0 -495.52 202.9 0 0 1446.36 -187.01 0.01zm-375.84 -926.54c-215.03,0 -371.18,175.79 -371.18,387.09 0,202.88 162.68,381.44 369.31,381.44 211.29,0 376.78,-172.02 376.78,-381.44 0.93,-216.92 -153.33,-387.09 -374.91,-387.09zm1150.93 1288.38l-210.37 0 158.01 -383.34 -431.95 -1061.16 218.78 0 318.82 840.51 326.29 -840.51 218.79 0 -598.37 1444.5 0 0zm1177.11 -334.73c-318.81,0 -584.35,-256.18 -584.35,-576.86 0,-318.82 272.07,-562.85 584.35,-562.85 316.96,0 584.34,245.91 584.34,566.59 0,309.47 -256.18,573.12 -584.34,573.12l0 0zm0 -953.65c-211.31,0 -381.46,172.04 -381.46,383.34 0,211.3 170.15,385.19 381.46,385.19 213.18,0 381.45,-175.77 381.45,-387.06 -0.93,-211.3 -171.1,-381.47 -381.45,-381.47zm749.82 926.54l0 -1446.37 203.82 0 0 1446.36 -203.82 0.01zm-7515.14 -213.17c8.42,34.6 19.64,62.65 32.73,84.16 13.08,21.5 29.92,40.19 49.55,57.95 64.51,56.11 145.86,85.08 242.16,85.08 95.36,0 185.13,-23.38 266.46,-68.25l0 -194.47c-84.15,49.55 -164.55,74.79 -240.28,74.79 -102.85,0 -156.14,-62.65 -156.14,-187.01l0 -530.09 341.24 0 0 -187.92 -340.31 0 0 -347.81 -201.02 0 0 346.87 -195.4 0 0 187.92 186.99 0 0 480.57c0,97.25 4.67,163.62 14.02,198.21zm1229.46 -688.11c62.65,0 131.83,34.59 205.69,103.77l110.33 -183.25c-89.75,-82.27 -198.21,-119.67 -261.79,-119.67l-14.03 0c-72.92,0 -194.47,0 -293.57,160.81l-3.74 6.54 0.93 -145.84 -210.35 0 0 1073.32 210.36 0 0 -560.96c0,-89.76 25.24,-168.29 75.74,-234.68 50.48,-66.39 111.25,-100.04 180.43,-100.04z"/>
  </g>
 </g>
</svg>
